<?xml version="1.0" encoding="utf-8"?>
<!-- Generator: Adobe Illustrator 19.0.1, SVG Export Plug-In . SVG Version: 6.00 Build 0)  -->
<svg version="1.1" id="Шар_1" xmlns="http://www.w3.org/2000/svg" xmlns:xlink="http://www.w3.org/1999/xlink" x="0px" y="0px"
	 viewBox="0 0 1492.7 397" style="enable-background:new 0 0 1492.7 397;" xml:space="preserve">
<style type="text/css">
	.st0{fill:url(#SVGID_1_);}
	.st1{fill:url(#SVGID_2_);}
	.st2{fill:#330867;}
	.st3{fill:url(#SVGID_3_);}
	.st4{fill:url(#SVGID_4_);}
	.st5{fill:url(#SVGID_5_);}
	.st6{fill:url(#SVGID_6_);}
	.st7{fill:url(#SVGID_7_);}
	.st8{fill:url(#SVGID_8_);}
	.st9{fill:url(#SVGID_9_);}
	.st10{fill:url(#SVGID_10_);}
	.st11{fill:url(#SVGID_11_);}
	.st12{fill:url(#SVGID_12_);}
	.st13{fill:url(#SVGID_13_);}
	.st14{fill:url(#SVGID_14_);}
	.st15{fill:url(#SVGID_15_);}
	.st16{fill:url(#SVGID_16_);}
	.st17{fill:url(#SVGID_17_);}
	.st18{fill:url(#SVGID_18_);}
	.st19{fill:url(#SVGID_19_);}
	.st20{fill:url(#SVGID_20_);}
	.st21{fill:url(#SVGID_21_);}
	.st22{fill:url(#SVGID_22_);}
	.st23{fill:url(#SVGID_23_);}
	.st24{fill:url(#SVGID_24_);}
	.st25{fill:url(#SVGID_25_);}
	.st26{fill:url(#SVGID_26_);}
	.st27{fill:url(#SVGID_27_);}
	.st28{fill:url(#SVGID_28_);}
	.st29{fill:url(#SVGID_29_);}
	.st30{fill:url(#SVGID_30_);}
	.st31{fill:url(#SVGID_31_);}
	.st32{fill:url(#SVGID_32_);}
	.st33{fill:url(#SVGID_33_);}
	.st34{fill:url(#SVGID_34_);}
	.st35{fill:url(#SVGID_35_);}
	.st36{fill:url(#SVGID_36_);}
	.st37{fill:url(#SVGID_37_);}
	.st38{fill:url(#SVGID_38_);}
	.st39{fill:url(#SVGID_39_);}
	.st40{fill:url(#SVGID_40_);}
	.st41{fill:url(#SVGID_41_);}
	.st42{fill:url(#SVGID_42_);}
</style>
<g>
	<path d="M466.7,155.8c0.2,0.6,0.4,1,0.7,1.2c0.3,0.2,0.5,0.3,0.6,0.3c0.1,0,0.3-0.1,0.6-0.3c0.3-0.2,0.5-0.6,0.7-1.2l16.2-46.9
		h23.9l-24,58.7c-0.6,1.5-1.3,2.9-2.2,4.3s-2,2.5-3.3,3.6c-1.3,1-2.9,1.8-4.8,2.4c-1.9,0.6-4.2,0.9-7,0.9c-2.8,0-5.1-0.3-7-0.9
		c-1.9-0.6-3.5-1.4-4.9-2.4c-1.3-1-2.5-2.2-3.3-3.6c-0.9-1.3-1.6-2.8-2.2-4.3l-24-58.7h23.9L466.7,155.8z"/>
	<path d="M529.9,116.6c0.5-1.3,1.2-2.4,1.9-3.5c0.7-1,1.7-1.9,2.9-2.7s2.6-1.3,4.4-1.7c1.8-0.4,4-0.6,6.7-0.6c1.6,0,3.2,0.1,4.8,0.2
		c1.5,0.2,3,0.5,4.3,1.1c1.3,0.6,2.6,1.4,3.8,2.5c1.1,1.1,2.1,2.6,2.9,4.5L587,178h-23.5l-5.4-14.2h-24.9l-5.4,14.2h-23.5
		L529.9,116.6z M538.6,148h14.2l-6.2-17.5c-0.1-0.3-0.3-0.6-0.4-0.9c-0.2-0.4-0.3-0.5-0.4-0.5s-0.3,0.2-0.4,0.5
		c-0.2,0.4-0.3,0.7-0.4,0.9L538.6,148z"/>
	<path d="M592.7,160.9h38.3c1.6,0,2.7-0.2,3.1-0.7c0.5-0.5,0.7-1,0.7-1.5c0-1.1-0.4-1.9-1.4-2.3c-0.9-0.4-1.9-0.8-3.1-1.1l-26.7-7.5
		c-2-0.5-3.7-1.3-4.9-2.3c-1.3-1-2.2-2-3-2.9c-1.6-2.2-2.7-4.6-3.1-7.4c-0.4-2.8-0.6-5.4-0.6-8c0-2.2,0.2-4.5,0.6-7
		c0.4-2.5,1.7-4.8,3.7-6.8c1.1-1.1,2.6-2.1,4.5-3c1.9-0.9,4.3-1.3,7.3-1.3h45.6v17.2h-35.1c-1.3,0-2.2,0-2.7,0.1
		c-0.5,0.1-0.8,0.2-1,0.3c-0.7,0.4-1.1,1-1.1,1.9c0,1.1,0.6,1.9,1.9,2.5c1.3,0.5,2.6,1,3.9,1.3l23.3,6.2c1.5,0.4,3.2,1,5,1.8
		c1.8,0.8,3.3,1.8,4.6,3.1c1.1,1.1,1.9,2.3,2.6,3.6c0.7,1.3,1.1,2.7,1.4,4.1c0.3,1.4,0.5,2.8,0.6,4.2c0.1,1.4,0.1,2.7,0.1,3.8
		c0,2-0.2,4.3-0.5,6.8c-0.3,2.5-1.3,4.8-2.9,6.9c-1,1.3-2,2.3-3.1,3.1c-1.1,0.7-2.3,1.3-3.5,1.6c-1.2,0.3-2.4,0.5-3.7,0.6
		c-1.2,0.1-2.4,0.1-3.6,0.1h-47.4V160.9z"/>
	<path d="M719.5,109h23.9l-29.9,49.9V178h-22.3v-19.1L661.2,109h23.9l17.2,29.8L719.5,109z"/>
	<path d="M760.8,178c-1.3,0-2.7-0.2-4-0.5c-1.4-0.3-2.5-0.9-3.5-1.7c-0.8-0.7-1.5-1.6-2.1-2.8c-0.6-1.2-0.9-2.5-0.9-4V109h22.3v47.7
		c0,0.4,0,0.9,0.1,1.6c0.1,0.7,0.4,1.3,0.9,1.7c0.5,0.4,1,0.6,1.7,0.7c0.7,0.1,1.3,0.2,1.9,0.2H813V178H760.8z"/>
	<path d="M918.4,178h-22.3v-27.4h-25.1V178h-22.3V109h22.3v24.5h25.1V109h22.3V178z"/>
	<path d="M969.2,108.2c2.6,0,5.3,0,8.1,0.2c2.8,0.1,5.5,0.4,8.1,0.8c2.7,0.5,5.2,1.2,7.6,2.1c2.4,1,4.5,2.3,6.4,4
		c1.8,1.7,3.3,3.7,4.3,6c1.1,2.3,1.8,4.7,2.4,7.2c0.5,2.5,0.8,5.1,0.9,7.7c0.1,2.6,0.1,5.1,0.1,7.3c0,2.3,0,4.7-0.1,7.3
		c-0.1,2.6-0.4,5.1-0.9,7.6c-0.5,2.5-1.3,4.9-2.4,7.2c-1,2.3-2.5,4.3-4.3,6.1c-1.8,1.7-4,3-6.4,4c-2.4,1-4.9,1.7-7.6,2.1
		c-2.6,0.5-5.4,0.7-8.2,0.8c-2.8,0.1-5.5,0.1-8,0.1c-2.6,0-5.3,0-8-0.1s-5.5-0.4-8.2-0.8c-2.7-0.5-5.2-1.2-7.6-2.1
		c-2.4-0.9-4.5-2.3-6.4-4c-1.9-1.8-3.4-3.8-4.4-6.1c-1-2.3-1.8-4.7-2.3-7.2c-0.5-2.5-0.8-5-0.9-7.6c-0.1-2.6-0.2-5-0.2-7.3
		c0-2.3,0-4.8,0.2-7.3c0.1-2.6,0.4-5.1,0.9-7.7c0.5-2.5,1.3-4.9,2.3-7.2c1-2.3,2.5-4.3,4.4-6c1.8-1.7,4-3,6.4-4
		c2.4-0.9,4.9-1.7,7.6-2.1c2.7-0.5,5.4-0.7,8.1-0.8C963.9,108.2,966.6,108.2,969.2,108.2z M954.1,143.5c0,2.8,0.1,5.2,0.4,7.4
		c0.3,2.1,1,4.1,2.1,5.8c0.7,1.1,1.5,2,2.4,2.7s1.8,1.2,2.9,1.5c1,0.3,2.1,0.5,3.4,0.6c1.2,0.1,2.5,0.1,3.9,0.1c1.4,0,2.8,0,4-0.1
		c1.2-0.1,2.3-0.3,3.3-0.6c1-0.3,1.9-0.8,2.8-1.5c0.9-0.7,1.7-1.6,2.5-2.7c1.3-1.8,2-3.8,2.2-5.9c0.2-2.1,0.4-4.5,0.4-7.3
		c0-1.5,0-2.9,0-4c0-1.2-0.1-2.3-0.3-3.3c-0.1-1-0.4-2-0.7-2.9c-0.4-0.9-0.9-1.9-1.5-2.9c-1.5-2.2-3.3-3.6-5.2-4.2
		c-2-0.6-4.4-0.8-7.3-0.8c-1.4,0-2.8,0-4,0.2c-1.2,0.1-2.3,0.3-3.4,0.7c-1,0.4-2,0.9-2.9,1.5c-0.9,0.7-1.7,1.5-2.4,2.7
		c-1.2,1.8-2,3.8-2.2,5.8C954.3,138.2,954.1,140.6,954.1,143.5z"/>
	<path d="M1030.6,178c-1.3,0-2.7-0.2-4-0.5c-1.4-0.3-2.5-0.9-3.5-1.7c-0.8-0.7-1.5-1.6-2.1-2.8c-0.6-1.2-0.9-2.5-0.9-4V109h22.3
		v47.7c0,0.4,0,0.9,0.1,1.6c0.1,0.7,0.4,1.3,0.9,1.7c0.5,0.4,1,0.6,1.7,0.7c0.7,0.1,1.3,0.2,1.9,0.2h35.8V178H1030.6z"/>
	<path d="M1126.7,108.2c2.6,0,5.3,0,8.1,0.2c2.8,0.1,5.5,0.4,8.1,0.8c2.7,0.5,5.2,1.2,7.6,2.1c2.4,1,4.5,2.3,6.4,4
		c1.8,1.7,3.3,3.7,4.3,6c1.1,2.3,1.8,4.7,2.4,7.2c0.5,2.5,0.8,5.1,0.9,7.7c0.1,2.6,0.1,5.1,0.1,7.3c0,2.3,0,4.7-0.1,7.3
		c-0.1,2.6-0.4,5.1-0.9,7.6c-0.5,2.5-1.3,4.9-2.4,7.2c-1,2.3-2.5,4.3-4.3,6.1c-1.8,1.7-4,3-6.4,4c-2.4,1-4.9,1.7-7.6,2.1
		c-2.6,0.5-5.4,0.7-8.2,0.8c-2.8,0.1-5.5,0.1-8,0.1c-2.6,0-5.3,0-8-0.1s-5.5-0.4-8.2-0.8c-2.7-0.5-5.2-1.2-7.6-2.1
		c-2.4-0.9-4.5-2.3-6.4-4c-1.9-1.8-3.4-3.8-4.4-6.1c-1-2.3-1.8-4.7-2.3-7.2c-0.5-2.5-0.8-5-0.9-7.6c-0.1-2.6-0.2-5-0.2-7.3
		c0-2.3,0-4.8,0.2-7.3c0.1-2.6,0.4-5.1,0.9-7.7c0.5-2.5,1.3-4.9,2.3-7.2c1-2.3,2.5-4.3,4.4-6c1.8-1.7,4-3,6.4-4
		c2.4-0.9,4.9-1.7,7.6-2.1c2.7-0.5,5.4-0.7,8.1-0.8C1121.4,108.2,1124.1,108.2,1126.7,108.2z M1111.6,143.5c0,2.8,0.1,5.2,0.4,7.4
		c0.3,2.1,1,4.1,2.1,5.8c0.7,1.1,1.5,2,2.4,2.7s1.8,1.2,2.9,1.5c1,0.3,2.1,0.5,3.4,0.6c1.2,0.1,2.5,0.1,3.9,0.1c1.4,0,2.8,0,4-0.1
		c1.2-0.1,2.3-0.3,3.3-0.6c1-0.3,1.9-0.8,2.8-1.5c0.9-0.7,1.7-1.6,2.5-2.7c1.3-1.8,2-3.8,2.2-5.9c0.2-2.1,0.4-4.5,0.4-7.3
		c0-1.5,0-2.9,0-4c0-1.2-0.1-2.3-0.3-3.3c-0.1-1-0.4-2-0.7-2.9c-0.4-0.9-0.9-1.9-1.5-2.9c-1.5-2.2-3.3-3.6-5.2-4.2
		c-2-0.6-4.4-0.8-7.3-0.8c-1.4,0-2.8,0-4,0.2c-1.2,0.1-2.3,0.3-3.4,0.7c-1,0.4-2,0.9-2.9,1.5c-0.9,0.7-1.7,1.5-2.4,2.7
		c-1.2,1.8-2,3.8-2.2,5.8C1111.7,138.2,1111.6,140.6,1111.6,143.5z"/>
	<path d="M1177.5,121.4c0-1.4,0.1-2.9,0.3-4.5c0.2-1.6,0.9-3.1,2-4.4c0.9-1,2-1.8,3.5-2.5c1.5-0.7,3.1-1,4.8-1h31.5
		c3.9,0,7.7,0.7,11.4,2.1c3.7,1.4,6.8,3.5,9.2,6.3c2.4,2.8,4.1,6.3,4.9,10.5c0.9,4.2,1.3,9.3,1.3,15.2c0,6.8-0.4,12.2-1.3,16.4
		c-0.9,4.1-2.2,7.4-4,9.9c-1.7,2.4-4.2,4.4-7.6,6.1c-3.4,1.7-7.4,2.6-12.2,2.6h-32.4c-1.1,0-2.4-0.1-3.9-0.4s-3-1-4.3-2.2
		c-0.9-0.9-1.7-1.9-2.3-3.3c-0.6-1.3-0.9-2.8-0.9-4.4V121.4z M1199.8,155.7c0,0.7,0,1.4,0.1,2.2c0.1,0.7,0.4,1.3,0.9,1.9
		c0.6,0.6,1.3,0.9,2.2,1c0.9,0.1,1.3,0.2,1.5,0.2h3.1c2.5,0,4.9-0.2,7.3-0.7c2.4-0.5,4.2-1.5,5.6-3.3c0.3-0.3,0.6-0.7,0.9-1.3
		c0.3-0.6,0.7-1.4,1-2.5c0.3-1.1,0.6-2.4,0.8-4.1c0.2-1.7,0.3-3.7,0.3-6.2c0-3.8-0.4-6.9-1.3-9.2c-0.9-2.3-2-4-3.3-5.2
		c-1.5-1.3-3.3-2.1-5.4-2.5c-2.1-0.3-4.5-0.5-7.2-0.5h-1.7c-0.6,0-1.2,0-1.8,0.1c-0.6,0.1-1.2,0.3-1.7,0.6c-0.7,0.5-1.1,1.2-1.2,1.9
		c-0.1,0.8-0.2,1.4-0.2,1.9V155.7z"/>
	<path d="M1259.2,178V109h22.3V178H1259.2z"/>
	<path d="M1318.6,109v39.7c0,1.5,0.2,3.2,0.5,5c0.3,1.8,1.3,3.4,3,4.7c1,0.8,2.2,1.4,3.8,1.8c1.6,0.4,3.1,0.6,4.7,0.6
		c1.6,0,3.1-0.2,4.7-0.6c1.5-0.4,2.8-1,3.8-1.8c0.9-0.7,1.5-1.4,2-2.3c0.5-0.9,0.8-1.7,1-2.6c0.2-0.9,0.4-1.7,0.4-2.6
		c0-0.8,0-1.6,0-2.3V109h22.3v41.4c0,1.8-0.1,3.6-0.2,5.3c-0.2,1.8-0.5,3.5-1,5.3c-0.5,1.8-1.3,3.5-2.2,5.2
		c-0.9,1.7-2.2,3.3-3.7,4.8c-1.8,1.8-3.7,3.2-5.8,4.2c-2.1,1-4.3,1.8-6.7,2.3c-2.3,0.5-4.7,0.9-7.2,1c-2.5,0.2-4.9,0.2-7.4,0.2
		c-2.5,0-5-0.1-7.4-0.2c-2.4-0.2-4.8-0.5-7.1-1c-2.3-0.5-4.6-1.3-6.7-2.3c-2.1-1-4-2.4-5.8-4.2c-1.5-1.5-2.7-3.1-3.7-4.8
		c-0.9-1.7-1.7-3.4-2.2-5.2c-0.5-1.8-0.9-3.5-1-5.3c-0.2-1.8-0.3-3.5-0.3-5.3V109H1318.6z"/>
	<path d="M1379.5,109h22.3V178h-22.3V109z M1429,178l-20.9-26.7c-2-2.6-3.1-5.5-3.1-8.7c0-1.3,0.2-2.7,0.6-4.1
		c0.4-1.4,0.9-2.6,1.6-3.5l18.5-26h26.4l-24,28.5c-0.5,0.6-1,1.3-1.4,2.2c-0.4,0.9-0.6,1.8-0.6,2.7c0,0.7,0.2,1.6,0.5,2.8
		c0.3,1.1,1.1,2.3,2.4,3.7l26.8,29.2H1429z"/>
	<g>
		<path d="M335.1,29L335.1,29c-20.5,0-38.7,13.1-45.3,32.5l-48.6,144.3c-5.3,15.8-20.1,26.4-36.8,26.4h0
			c-16.7,0-31.5-10.6-36.8-26.4L119,61.5C112.4,42.1,94.2,29,73.7,29h0c-32.1,0-55.1,31.1-45.7,61.8l79.2,258
			c12.6,20.4,30.6,22.4,44.4,16c11.4-5.3,18.8-16.7,20.6-29.1l0-0.3c2-14.3,14.3-25,28.7-25h5.4c8.2,0,15.9,3.1,21.7,8.2
			s9.8,12.3,10.9,20.5c4.5,35,53.6,39.2,63.9,5.5l77.9-253.7C390.2,60.1,367.3,29,335.1,29z"/>
		<path d="M217.8,136.4L251,48.3c3.5-9.3-3.4-19.2-13.3-19.2L171.5,29c-9.9,0-16.8,9.9-13.3,19.2l33,88.2
			C195.8,148.6,213.2,148.7,217.8,136.4z"/>
	</g>
	<g>
		<path d="M460.6,238.7c-3.6,0-6.4,0.1-8.3,0.4c-2,0.3-3.8,0.9-5.5,1.9c-1.7,1-2.9,2.5-3.6,4.5c-0.7,2-1.1,4.7-1.1,8.1h16
			c2.3,0,3.5,0.9,3.5,2.6c0,1.4-1.2,2.1-3.5,2.1h-16v44.2c0,2.3-0.9,3.5-2.6,3.5c-1.4,0-2.1-1.2-2.1-3.5v-44.2
			c-2.3,0-3.5-0.8-3.5-2.5c0-1.5,1.2-2.2,3.5-2.2c0-4.2,0.5-7.6,1.6-10.2c1-2.7,2.7-4.6,4.9-6c2.2-1.3,4.6-2.2,7.2-2.7
			c2.5-0.4,5.7-0.7,9.6-0.7c2.3,0,3.5,0.9,3.5,2.6C464.1,238,463,238.7,460.6,238.7z"/>
		<path d="M495.1,258.3c-6,0-10.6,1.8-13.8,5.4c-3.2,3.6-4.8,8.8-4.8,15.5v23.4c0,2.2-0.8,3.4-2.4,3.4s-2.4-1.1-2.4-3.4v-46.4
			c0-2.3,0.7-3.5,2.1-3.5c1.7,0,2.6,1.2,2.6,3.5v5.4c4.2-5.4,10.4-8.1,18.6-8.1h5.2c2.2,0,3.4,0.8,3.4,2.4c0,1.6-1.1,2.4-3.4,2.4
			H495.1z"/>
		<path d="M537.6,305.2h-3.2c-7.9,0-13.8-1.3-17.6-3.9c-3.8-2.6-5.7-7.8-5.7-15.7v-12.4c0-7.8,1.9-13.1,5.7-15.7
			c3.8-2.6,9.7-3.9,17.6-3.9h3.2c7.8,0,13.7,1.3,17.5,3.9c3.8,2.6,5.7,7.8,5.7,15.7v12.4c0,7.8-1.9,13.1-5.7,15.7
			C551.3,303.9,545.4,305.2,537.6,305.2z M534.4,300.5h3.2c3.5,0,6.3-0.1,8.2-0.4c2-0.3,3.8-0.9,5.5-1.9c1.7-1,2.9-2.5,3.6-4.5
			c0.7-2,1.1-4.7,1.1-8.1v-12.4c0-3.4-0.4-6-1.1-8.1c-0.7-2-1.9-3.5-3.6-4.5c-1.7-1-3.6-1.6-5.5-1.9c-2-0.3-4.7-0.4-8.2-0.4h-3.2
			c-3.6,0-6.4,0.1-8.3,0.4c-2,0.3-3.8,0.9-5.5,1.9c-1.7,1-2.9,2.5-3.6,4.5c-0.7,2-1.1,4.7-1.1,8.1v12.4c0,3.4,0.4,6,1.1,8.1
			c0.7,2,1.9,3.5,3.6,4.5c1.7,1,3.6,1.6,5.5,1.9C528,300.4,530.8,300.5,534.4,300.5z"/>
		<path d="M599.3,258.3c-6,0-10.6,1.8-13.8,5.4c-3.2,3.6-4.8,8.8-4.8,15.5v23.4c0,2.2-0.8,3.4-2.4,3.4s-2.4-1.1-2.4-3.4v-46.4
			c0-2.3,0.7-3.5,2.1-3.5c1.7,0,2.6,1.2,2.6,3.5v5.4c4.2-5.4,10.4-8.1,18.6-8.1h3.2c7.8,0,13.7,1.3,17.5,3.9
			c3.8,2.6,5.7,7.8,5.7,15.7v29.5c0,2.2-0.7,3.4-2.2,3.4c-1.6,0-2.5-1.1-2.5-3.4v-29.5c0-3.4-0.4-6-1.1-8.1c-0.7-2-1.9-3.5-3.6-4.5
			c-1.7-1-3.6-1.6-5.5-1.9c-2-0.3-4.7-0.4-8.2-0.4H599.3z"/>
		<path d="M646.8,285.6c0,3.4,0.4,6,1.1,8.1c0.7,2,1.9,3.5,3.6,4.5c1.7,1,3.6,1.6,5.5,1.9c2,0.3,4.8,0.4,8.3,0.4
			c2.2,0,3.4,0.7,3.4,2.1c0,1.7-1.1,2.6-3.4,2.6c-3.8,0-7-0.2-9.6-0.7c-2.6-0.5-5-1.4-7.2-2.7c-2.2-1.3-3.8-3.3-4.9-6
			c-1-2.7-1.6-6-1.6-10.1v-27.3c-2.3,0-3.5-0.8-3.5-2.5c0-1.5,1.2-2.2,3.5-2.2v-12.2c0-2.3,0.7-3.5,2.1-3.5c1.7,0,2.6,1.2,2.6,3.5
			v12.2h16c2.3,0,3.5,0.9,3.5,2.6c0,1.4-1.2,2.1-3.5,2.1h-16V285.6z"/>
		<path d="M677.3,281.8c-1.9,0-2.9-0.8-2.9-2.5c0-1.6,1-2.4,2.9-2.4h27.4c2.2,0,3.2,0.9,3.2,2.6c0,1.5-1.1,2.2-3.2,2.2H677.3z"/>
		<path d="M772.8,273.2v4h-45v8.4c0,3.4,0.4,6,1.1,8.1c0.7,2,1.9,3.5,3.6,4.5c1.7,1,3.6,1.6,5.5,1.9c2,0.3,4.8,0.4,8.3,0.4h15
			c2.5,0,4.3-0.6,5.3-1.7c1-1.1,1.5-3.1,1.5-5.8c0-2.1,0.8-3.1,2.4-3.1c1.6,0,2.4,1.2,2.4,3.5c0,1.6-0.1,3.1-0.3,4.3
			c-0.2,1.2-0.7,2.4-1.3,3.7c-0.6,1.3-1.7,2.2-3.2,2.9c-1.5,0.7-3.5,1-5.8,1h-15.8c-7.9,0-13.8-1.3-17.6-3.9
			c-3.8-2.6-5.7-7.8-5.7-15.7v-12.4c0-7.8,1.9-13.1,5.7-15.7c3.8-2.6,9.7-3.9,17.6-3.9h3.2c7.8,0,13.7,1.3,17.5,3.9
			C770.9,260.1,772.8,265.4,772.8,273.2z M749.6,258.3h-3.2c-6.9,0-11.7,0.9-14.4,2.6c-2.8,1.7-4.1,5.6-4.1,11.6h40.3
			c0-6-1.4-9.9-4.1-11.6C761.2,259.2,756.4,258.3,749.6,258.3z"/>
		<path d="M811.1,258.3c-6,0-10.6,1.8-13.8,5.4c-3.2,3.6-4.8,8.8-4.8,15.5v23.4c0,2.2-0.8,3.4-2.4,3.4c-1.6,0-2.4-1.1-2.4-3.4v-46.4
			c0-2.3,0.7-3.5,2.1-3.5c1.7,0,2.6,1.2,2.6,3.5v5.4c4.2-5.4,10.4-8.1,18.6-8.1h3.2c7.8,0,13.7,1.3,17.5,3.9
			c3.8,2.6,5.7,7.8,5.7,15.7v29.5c0,2.2-0.7,3.4-2.2,3.4c-1.6,0-2.5-1.1-2.5-3.4v-29.5c0-3.4-0.4-6-1.1-8.1c-0.7-2-1.9-3.5-3.6-4.5
			c-1.7-1-3.6-1.6-5.5-1.9c-2-0.3-4.7-0.4-8.2-0.4H811.1z"/>
		<path d="M852.2,273.2c0-7.8,1.9-13.1,5.7-15.7c3.8-2.6,9.7-3.9,17.6-3.9h21.7v-16.9c0-2.3,0.9-3.5,2.6-3.5c1.4,0,2.1,1.2,2.1,3.5
			v66c0,2.2-0.8,3.4-2.4,3.4s-2.4-1.1-2.4-3.4v-5.5c-4,5.4-10.2,8.1-18.5,8.1h-3.2c-7.9,0-13.8-1.3-17.6-3.9
			c-3.8-2.6-5.7-7.8-5.7-15.7V273.2z M856.9,285.6c0,3.4,0.4,6,1.1,8.1c0.7,2,1.9,3.5,3.6,4.5c1.7,1,3.6,1.6,5.5,1.9
			c2,0.3,4.8,0.4,8.3,0.4h3.2c5.9,0,10.5-1.8,13.7-5.4c3.2-3.6,4.8-8.7,4.8-15.5v-21.4h-21.7c-3.6,0-6.4,0.1-8.3,0.4
			c-2,0.3-3.8,0.9-5.5,1.9c-1.7,1-2.9,2.5-3.6,4.5c-0.7,2-1.1,4.7-1.1,8.1V285.6z"/>
		<path d="M946.3,273.2c0-7.8,1.9-13.1,5.7-15.7s9.7-3.9,17.6-3.9h21.7v-16.9c0-2.3,0.9-3.5,2.6-3.5c1.4,0,2.1,1.2,2.1,3.5v66
			c0,2.2-0.8,3.4-2.4,3.4s-2.4-1.1-2.4-3.4v-5.5c-4,5.4-10.2,8.1-18.5,8.1h-3.2c-7.9,0-13.8-1.3-17.6-3.9s-5.7-7.8-5.7-15.7V273.2z
			 M951,285.6c0,3.4,0.4,6,1.1,8.1c0.7,2,1.9,3.5,3.6,4.5c1.7,1,3.6,1.6,5.5,1.9c2,0.3,4.8,0.4,8.3,0.4h3.2c5.9,0,10.5-1.8,13.7-5.4
			c3.2-3.6,4.8-8.7,4.8-15.5v-21.4h-21.7c-3.6,0-6.4,0.1-8.3,0.4c-2,0.3-3.8,0.9-5.5,1.9c-1.7,1-2.9,2.5-3.6,4.5
			c-0.7,2-1.1,4.7-1.1,8.1V285.6z"/>
		<path d="M1061,273.2v4h-45v8.4c0,3.4,0.4,6,1.1,8.1c0.7,2,1.9,3.5,3.6,4.5c1.7,1,3.6,1.6,5.5,1.9c2,0.3,4.8,0.4,8.3,0.4h15
			c2.5,0,4.3-0.6,5.3-1.7c1-1.1,1.5-3.1,1.5-5.8c0-2.1,0.8-3.1,2.4-3.1s2.4,1.2,2.4,3.5c0,1.6-0.1,3.1-0.3,4.3
			c-0.2,1.2-0.7,2.4-1.3,3.7c-0.6,1.3-1.7,2.2-3.2,2.9c-1.5,0.7-3.5,1-5.8,1h-15.8c-7.9,0-13.8-1.3-17.6-3.9s-5.7-7.8-5.7-15.7
			v-12.4c0-7.8,1.9-13.1,5.7-15.7s9.7-3.9,17.6-3.9h3.2c7.8,0,13.7,1.3,17.5,3.9S1061,265.4,1061,273.2z M1037.8,258.3h-3.2
			c-6.9,0-11.7,0.9-14.4,2.6c-2.8,1.7-4.1,5.6-4.1,11.6h40.3c0-6-1.4-9.9-4.1-11.6C1049.4,259.2,1044.6,258.3,1037.8,258.3z"/>
		<path d="M1091.5,305.2l-20.3-49.2c-0.2-0.1-0.3-0.5-0.3-1.1s0.2-1.1,0.6-1.5c0.4-0.4,0.9-0.6,1.5-0.6c1.1,0,2,0.7,2.6,2.1
			l19.4,45.1h0.8l20.2-45.3c0.7-1.3,1.5-2,2.6-2c1.4,0,2.1,0.7,2.1,2c0,0.6-0.1,1-0.3,1.2l-21.6,49.2H1091.5z"/>
		<path d="M1179.9,273.2v4h-45v8.4c0,3.4,0.4,6,1.1,8.1c0.7,2,1.9,3.5,3.6,4.5c1.7,1,3.6,1.6,5.5,1.9c2,0.3,4.8,0.4,8.3,0.4h15
			c2.5,0,4.3-0.6,5.3-1.7c1-1.1,1.5-3.1,1.5-5.8c0-2.1,0.8-3.1,2.4-3.1c1.6,0,2.4,1.2,2.4,3.5c0,1.6-0.1,3.1-0.3,4.3
			c-0.2,1.2-0.7,2.4-1.3,3.7c-0.6,1.3-1.7,2.2-3.2,2.9c-1.5,0.7-3.5,1-5.8,1h-15.8c-7.9,0-13.8-1.3-17.6-3.9s-5.7-7.8-5.7-15.7
			v-12.4c0-7.8,1.9-13.1,5.7-15.7s9.7-3.9,17.6-3.9h3.2c7.8,0,13.7,1.3,17.5,3.9C1178,260.1,1179.9,265.4,1179.9,273.2z
			 M1156.7,258.3h-3.2c-6.9,0-11.7,0.9-14.4,2.6c-2.8,1.7-4.1,5.6-4.1,11.6h40.3c0-6-1.4-9.9-4.1-11.6
			C1168.3,259.2,1163.5,258.3,1156.7,258.3z"/>
		<path d="M1208.1,305.2h-0.8c-4.1,0-6.9-1-8.4-3c-1.5-2-2.2-5.6-2.2-10.9v-54.8c0-2.2,0.8-3.4,2.4-3.4c1.6,0,2.4,1.1,2.4,3.4v56.8
			c0,2.6,0.5,4.5,1.5,5.5c1,1.1,2.7,1.6,5.3,1.6c2.2,0,3.4,0.8,3.4,2.5C1211.5,304.5,1210.3,305.2,1208.1,305.2z"/>
		<path d="M1248.6,305.2h-3.2c-7.9,0-13.8-1.3-17.6-3.9s-5.7-7.8-5.7-15.7v-12.4c0-7.8,1.9-13.1,5.7-15.7s9.7-3.9,17.6-3.9h3.2
			c7.8,0,13.7,1.3,17.5,3.9s5.7,7.8,5.7,15.7v12.4c0,7.8-1.9,13.1-5.7,15.7S1256.5,305.2,1248.6,305.2z M1245.4,300.5h3.2
			c3.5,0,6.3-0.1,8.2-0.4c2-0.3,3.8-0.9,5.5-1.9c1.7-1,2.9-2.5,3.6-4.5c0.7-2,1.1-4.7,1.1-8.1v-12.4c0-3.4-0.4-6-1.1-8.1
			c-0.7-2-1.9-3.5-3.6-4.5c-1.7-1-3.6-1.6-5.5-1.9c-2-0.3-4.7-0.4-8.2-0.4h-3.2c-3.6,0-6.4,0.1-8.3,0.4c-2,0.3-3.8,0.9-5.5,1.9
			c-1.7,1-2.9,2.5-3.6,4.5c-0.7,2-1.1,4.7-1.1,8.1v12.4c0,3.4,0.4,6,1.1,8.1c0.7,2,1.9,3.5,3.6,4.5c1.7,1,3.6,1.6,5.5,1.9
			C1239,300.4,1241.8,300.5,1245.4,300.5z"/>
		<path d="M1336.9,285.6c0,7.8-1.9,13.1-5.7,15.7s-9.6,3.9-17.5,3.9h-21.8v17c0,2.2-0.9,3.4-2.6,3.4c-1.4,0-2.1-1.1-2.1-3.4v-66.1
			c0-2.2,0.8-3.4,2.4-3.4c1.6,0,2.4,1.1,2.4,3.4v5.5c4.2-5.4,10.4-8.1,18.6-8.1h3.2c7.8,0,13.7,1.3,17.5,3.9s5.7,7.8,5.7,15.7V285.6
			z M1332.2,273.2c0-3.4-0.4-6-1.1-8.1c-0.7-2-1.9-3.5-3.6-4.5c-1.7-1-3.6-1.6-5.5-1.9c-2-0.3-4.7-0.4-8.2-0.4h-3.2
			c-6,0-10.6,1.8-13.8,5.4c-3.2,3.6-4.8,8.8-4.8,15.5v21.3h21.8c3.5,0,6.3-0.1,8.2-0.4c2-0.3,3.8-0.9,5.5-1.9c1.7-1,2.9-2.5,3.6-4.5
			c0.7-2,1.1-4.7,1.1-8.1V273.2z"/>
		<path d="M1400.5,273.2v4h-45v8.4c0,3.4,0.4,6,1.1,8.1c0.7,2,1.9,3.5,3.6,4.5c1.7,1,3.6,1.6,5.5,1.9c2,0.3,4.8,0.4,8.3,0.4h15
			c2.5,0,4.3-0.6,5.3-1.7c1-1.1,1.5-3.1,1.5-5.8c0-2.1,0.8-3.1,2.4-3.1c1.6,0,2.4,1.2,2.4,3.5c0,1.6-0.1,3.1-0.3,4.3
			c-0.2,1.2-0.7,2.4-1.3,3.7c-0.6,1.3-1.7,2.2-3.2,2.9c-1.5,0.7-3.5,1-5.8,1h-15.8c-7.9,0-13.8-1.3-17.6-3.9
			c-3.8-2.6-5.7-7.8-5.7-15.7v-12.4c0-7.8,1.9-13.1,5.7-15.7c3.8-2.6,9.7-3.9,17.6-3.9h3.2c7.8,0,13.7,1.3,17.5,3.9
			C1398.6,260.1,1400.5,265.4,1400.5,273.2z M1377.3,258.3h-3.2c-6.9,0-11.7,0.9-14.4,2.6c-2.8,1.7-4.1,5.6-4.1,11.6h40.3
			c0-6-1.4-9.9-4.1-11.6C1388.9,259.2,1384.1,258.3,1377.3,258.3z"/>
		<path d="M1438.8,258.3c-6,0-10.6,1.8-13.8,5.4c-3.2,3.6-4.8,8.8-4.8,15.5v23.4c0,2.2-0.8,3.4-2.4,3.4s-2.4-1.1-2.4-3.4v-46.4
			c0-2.3,0.7-3.5,2.1-3.5c1.7,0,2.6,1.2,2.6,3.5v5.4c4.2-5.4,10.4-8.1,18.6-8.1h5.2c2.2,0,3.4,0.8,3.4,2.4c0,1.6-1.1,2.4-3.4,2.4
			H1438.8z"/>
	</g>
</g>
</svg>
